<?xml version="1.0" encoding="utf-8"?>
<!-- Generator: Adobe Illustrator 27.6.1, SVG Export Plug-In . SVG Version: 6.00 Build 0)  -->
<svg version="1.1" id="Ebene_1" xmlns="http://www.w3.org/2000/svg" xmlns:xlink="http://www.w3.org/1999/xlink" x="0px" y="0px"
	 viewBox="0 0 1024 1024" style="enable-background:new 0 0 1024 1024;" xml:space="preserve">
<style type="text/css">
	.st0{fill:#FFFFFF;}
	.st1{fill:none;}
	.st2{fill:url(#SVGID_1_);}
	.st3{fill:url(#SVGID_00000002386041408368478390000006991309178139313061_);}
	.st4{fill:url(#SVGID_00000180367189336513158290000010194108498967135371_);}
	.st5{fill:url(#SVGID_00000119806854529992900050000014870709879353084854_);}
	.st6{fill:#1E8496;}
	.st7{fill:#4E4D4D;}
</style>
<path class="st0" d="M828.1,1024H195.9C87.7,1024,0,938.8,0,833.8V190.2C0,85.2,87.7,0,195.9,0h632.3C936.3,0,1024,85.2,1024,190.2
	v643.4C1024,938.8,936.3,1024,828.1,1024z"/>
<polygon class="st1" points="245.7,178.3 202.3,209.6 246.7,178.3 "/>
<polygon class="st1" points="246.7,178.3 202.3,209.6 202.3,594.2 245.7,625.6 777.2,625.6 821.7,594.2 821.7,210.5 778.3,178.3 "/>
<polygon class="st1" points="778.3,178.3 821.7,210.5 821.7,209.6 "/>
<polygon class="st1" points="778.3,625.6 821.7,594.2 777.2,625.6 "/>
<linearGradient id="SVGID_1_" gradientUnits="userSpaceOnUse" x1="246.675" y1="-634.5413" x2="945.5684" y2="-634.5413" gradientTransform="matrix(1 0 0 1 0 824)">
	<stop  offset="0" style="stop-color:#1E8496"/>
	<stop  offset="8.000000e-02" style="stop-color:#3993A3"/>
	<stop  offset="0.23" style="stop-color:#63ABB8"/>
	<stop  offset="0.38" style="stop-color:#86BFC9"/>
	<stop  offset="0.53" style="stop-color:#A1CED6"/>
	<stop  offset="0.68" style="stop-color:#B5D9DF"/>
	<stop  offset="0.84" style="stop-color:#C0E0E5"/>
	<stop  offset="1" style="stop-color:#C4E2E7"/>
</linearGradient>
<path class="st2" d="M778.3,178.3l43.5,31.3v0.9l123.8,91.9v-79.2c0-80.8-66-146.8-146.8-146.8H390.4L246.7,178.3H778.3z"/>
<linearGradient id="SVGID_00000087414285566377954400000017810294315348304048_" gradientUnits="userSpaceOnUse" x1="36.3749" y1="-354.5066" x2="282.6017" y2="-519.3802" gradientTransform="matrix(1 0 0 1 0 824)">
	<stop  offset="0" style="stop-color:#1E8496"/>
	<stop  offset="8.000000e-02" style="stop-color:#3993A3"/>
	<stop  offset="0.23" style="stop-color:#63ABB8"/>
	<stop  offset="0.38" style="stop-color:#86BFC9"/>
	<stop  offset="0.53" style="stop-color:#A1CED6"/>
	<stop  offset="0.68" style="stop-color:#B5D9DF"/>
	<stop  offset="0.84" style="stop-color:#C0E0E5"/>
	<stop  offset="1" style="stop-color:#C4E2E7"/>
</linearGradient>
<path style="fill:url(#SVGID_00000087414285566377954400000017810294315348304048_);" d="M202.3,594.2V209.6l43.5-31.3h0.9
	L390.4,76.5H225.2c-80.8,0-146.8,66-146.8,146.8v283.2l167.3,119.1L202.3,594.2z"/>
<linearGradient id="SVGID_00000113337162030637035230000014423137943917670067_" gradientUnits="userSpaceOnUse" x1="679.3745" y1="-597.4137" x2="837.8273" y2="-182.0246" gradientTransform="matrix(1 0 0 1 0 824)">
	<stop  offset="0" style="stop-color:#1E8496"/>
	<stop  offset="8.000000e-02" style="stop-color:#3993A3"/>
	<stop  offset="0.23" style="stop-color:#63ABB8"/>
	<stop  offset="0.38" style="stop-color:#86BFC9"/>
	<stop  offset="0.53" style="stop-color:#A1CED6"/>
	<stop  offset="0.68" style="stop-color:#B5D9DF"/>
	<stop  offset="0.84" style="stop-color:#C0E0E5"/>
	<stop  offset="1" style="stop-color:#C4E2E7"/>
</linearGradient>
<path style="fill:url(#SVGID_00000113337162030637035230000014423137943917670067_);" d="M821.7,210.5v383.6l-43.5,31.5h-1.1
	L633.1,727.3h165.7c80.8,0,146.8-66,146.8-146.7V302.4L821.7,210.5z"/>
<linearGradient id="SVGID_00000121265053769391984090000013455331582472261794_" gradientUnits="userSpaceOnUse" x1="791.5465" y1="-160.1614" x2="322.6329" y2="-194.4227" gradientTransform="matrix(1 0 0 1 0 824)">
	<stop  offset="0" style="stop-color:#1E8496"/>
	<stop  offset="8.000000e-02" style="stop-color:#3993A3"/>
	<stop  offset="0.23" style="stop-color:#63ABB8"/>
	<stop  offset="0.38" style="stop-color:#86BFC9"/>
	<stop  offset="0.53" style="stop-color:#A1CED6"/>
	<stop  offset="0.68" style="stop-color:#B5D9DF"/>
	<stop  offset="0.84" style="stop-color:#C0E0E5"/>
	<stop  offset="1" style="stop-color:#C4E2E7"/>
</linearGradient>
<path style="fill:url(#SVGID_00000121265053769391984090000013455331582472261794_);" d="M245.7,625.6L78.4,506.5v74.1
	c0,80.7,66,146.7,146.8,146.7h407.9l144.1-101.7L245.7,625.6z"/>
<path class="st6" d="M586.8,815.1h18l1.5,16.6h0.8c2.8-5.5,7-10.4,12-14c4.2-3.1,9.3-4.7,14.5-4.8c3.7-0.1,7.3,0.5,10.7,1.9
	l-3.9,19.1l-4.5-1.2c-1.8-0.2-3.4-0.4-5.2-0.4c-3.8,0-7.5,1.4-11.7,4.2c-4.1,2.8-7.5,7.9-10.5,15.1v57.3h-21.9L586.8,815.1
	L586.8,815.1z"/>
<path class="st6" d="M650,862.1c-0.1-7.1,1.1-14,3.7-20.6c2.1-5.8,5.3-11,9.5-15.4c3.9-4.1,8.6-7.5,13.9-9.8
	c5.1-2.2,10.5-3.4,16-3.4c5.8-0.1,11.4,0.9,16.7,3.2c4.7,2.1,8.8,5.3,12.1,9.2c3.4,4.1,5.9,9,7.4,14.1c1.6,5.8,2.6,11.9,2.5,17.9
	c0.1,3.5-0.2,7-0.9,10.4h-59.6c1.1,8.5,4,15.1,9,19.7c4.9,4.6,11.1,6.8,18.7,6.8c3.9,0.1,7.7-0.6,11.3-1.9c3.7-1.2,7.2-2.9,10.5-4.9
	l7.4,13.7c-4.6,3.1-9.7,5.5-14.8,7.3c-5.5,1.9-11.3,2.8-17.2,2.8c-6.2,0.1-12.4-1.1-18.1-3.3c-5.5-2.1-10.5-5.4-14.7-9.7
	c-4.2-4.5-7.7-9.7-9.8-15.4C651,876.1,649.8,869.1,650,862.1z M712.8,853.6c0-7.4-1.5-13.3-4.7-17.6c-3.2-4.2-7.9-6.2-14.4-6.2
	c-5.5,0-10.8,2.1-14.7,6c-4.2,4-6.8,9.9-7.8,17.8L712.8,853.6z"/>
<path class="st6" d="M752.8,815.1H771l1.5,12.6h0.7c4.1-4,8.7-7.4,13.7-10.5c5.2-2.9,11.1-4.5,17.1-4.4c10,0,17.4,3.2,21.9,9.7
	s7,15.6,7,27.6v58.8h-22v-56c0-7.8-1.1-13.2-3.4-16.4c-2.4-3.2-6-4.8-11.2-4.8c-3.8-0.1-7.5,0.9-10.8,2.9c-3.8,2.6-7.3,5.5-10.6,8.7
	v65.5h-21.9L752.8,815.1L752.8,815.1z"/>
<path class="st6" d="M855.7,883.6c0-10.1,4.4-17.8,13.2-23.3c8.8-5.5,22.7-9.3,41.9-11.4c0-2.4-0.2-4.7-0.9-7
	c-0.6-2.1-1.5-4.1-2.9-5.9c-1.3-1.8-3.2-3.2-5.2-4c-2.5-1.2-5.2-1.6-7.9-1.5c-4.7,0-9.3,0.9-13.7,2.7c-4.4,1.8-8.6,4-12.6,6.5
	l-8-14.7c5.5-3.4,11.3-6.2,17.4-8.5c6.7-2.5,13.8-3.8,20.9-3.7c11.9,0,20.6,3.4,26.4,10.4s8.6,17,8.6,30v55.6h-18l-1.6-10.4h-0.6
	c-4.1,3.5-8.6,6.5-13.4,9c-4.8,2.5-10.1,3.7-15.6,3.7c-8.4,0-15.1-2.5-20.1-7.5C858.4,898.5,855.7,891.9,855.7,883.6z M877.1,881.9
	c0,4.2,1.2,7.3,3.7,9.2c2.8,2,6.2,2.9,9.7,2.8c3.7,0,7.3-0.8,10.5-2.6c3.5-2.1,7-4.7,9.9-7.7v-21c-5.4,0.6-10.7,1.5-16,2.9
	c-3.7,0.9-7.1,2.5-10.4,4.4c-2.4,1.3-4.2,3.2-5.7,5.4C877.6,877.4,877.1,879.6,877.1,881.9z"/>
<path class="st7" d="M144.4,911.1c-8,0.1-16-1.4-23.6-4.4c-7-2.8-13.1-7.2-18.1-12.7c-5.2-6-9.2-12.8-11.7-20.4
	c-2.9-8.8-4.4-18.1-4.2-27.5c-0.1-9.2,1.3-18.5,4.2-27.2c2.5-7.4,6.5-14.1,11.7-20c5.1-5.4,11.3-9.5,18.1-12.3
	c15.2-5.7,31.9-5.7,47.1,0c7,2.7,13.1,7,18.1,12.4c5.2,5.8,9.2,12.6,11.8,20c2.9,8.7,4.4,17.9,4.2,27.1c0.1,9.3-1.3,18.6-4.2,27.5
	c-2.5,7.5-6.5,14.5-11.8,20.4c-5.1,5.5-11.2,9.9-18.1,12.7C160.4,909.7,152.4,911.2,144.4,911.1z M144.4,882.8
	c7.5,0,13.4-3.3,17.7-9.8c4.2-6.5,6.5-15.6,6.5-26.9c0-11.3-2.2-20-6.5-26.3c-6.7-9.8-20.1-12.1-29.8-5.4c-2.1,1.4-3.9,3.3-5.4,5.4
	c-4.4,6.2-6.5,15-6.5,26.3c0,11.3,2.1,20.3,6.5,26.9C131.2,879.6,137,882.8,144.4,882.8z"/>
<path class="st7" d="M291.1,908.9l-21.4-41.7H257v41.7h-32.8V784.8h46.9c6.4,0,12.7,0.6,19,1.9c5.7,1.1,11.1,3.3,15.9,6.5
	c4.6,3.1,8.2,7.3,10.7,12.3c2.7,5.2,4,11.7,4,19.4c0,7.8-1.8,16.3-5.4,22.1c-3.5,5.8-8.6,10.5-14.6,13.7l27,48.2H291.1z M257,841.2
	h11.9c13.2,0,19.8-5.4,19.8-16.4c0-5.4-1.6-9.1-5.1-11.1c-3.4-2-8.2-3.1-14.7-3.1H257V841.2z"/>
<path class="st7" d="M339.2,847.7c-0.1-9.5,1.5-19,4.9-27.8c3.1-7.7,7.7-14.6,13.5-20.4c5.8-5.5,12.5-9.9,19.9-12.7
	c7.8-2.9,15.9-4.4,24.2-4.4c8-0.1,15.9,1.5,23.1,4.8c6.1,2.9,11.7,6.8,16.6,11.5l-17.9,20.3c-2.8-2.5-5.9-4.5-9.3-6.1
	c-3.1-1.5-7.2-2.2-12.1-2.2c-4,0-7.9,0.8-11.5,2.5c-3.7,1.6-6.8,4-9.4,7.1c-2.8,3.3-4.8,7.1-6.1,11.2c-1.5,4.8-2.4,10-2.2,15.1
	c0,11.8,2.6,20.7,7.8,27s13.4,9.3,24.6,9.3c1.8,0,3.5-0.1,5.3-0.6c1.5-0.2,2.9-0.8,4.2-1.6v-17.2h-18.3v-26.7h47.4v59.1
	c-5.4,4.7-11.5,8.4-18.3,10.8c-7.8,3.1-16.1,4.5-24.5,4.5c-8.1,0.1-16.3-1.3-24-3.9c-7.3-2.5-14-6.6-19.7-11.9
	c-5.8-5.5-10.4-12.3-13.3-19.8C340.6,866.7,339,857.2,339.2,847.7z"/>
<path class="st7" d="M524.6,882.5H490l-6.1,26.4h-33.6L488,784.8h39.7l37.8,124.1h-34.8L524.6,882.5z M518.7,857.1l-2.1-8.6
	c-1.5-6-3.1-12.5-4.6-19.6c-1.5-7.1-2.9-13.5-4.5-19.8h-0.8c-1.4,6.4-2.8,13-4.2,19.9c-1.4,7-2.9,13.4-4.5,19.4l-2.1,8.6
	L518.7,857.1z"/>
</svg>
